<svg width="244" height="199" viewBox="0 0 244 199" fill="none" xmlns="http://www.w3.org/2000/svg">
<path d="M228.481 91.9393C228.617 91.9731 228.743 92.0404 228.848 92.1344C228.952 92.2283 229.034 92.3469 229.083 92.4791C229.132 92.6116 229.147 92.7561 229.13 92.8964C229.112 93.037 229.06 93.1728 228.98 93.2887C228.856 93.5359 228.697 93.7644 228.508 93.9645C225.732 96.7778 223.206 99.5923 220.513 102.405C219.734 103.219 218.795 103.859 217.759 104.286C216.851 104.658 215.884 104.858 214.908 104.88H202.579C201.513 104.793 200.443 104.987 199.471 105.44C198.499 105.893 197.657 106.592 197.028 107.47C196.391 108.333 196.032 109.375 196.001 110.452V122.521C196.049 124.798 195.368 127.03 194.059 128.88C193.237 129.996 192.199 130.933 191.011 131.634C189.824 132.334 188.508 132.784 187.145 132.958C186.101 133.043 185.051 133.043 184.008 132.958C183.823 132.97 183.637 132.942 183.464 132.876C183.291 132.81 183.13 132.707 182.999 132.575C182.868 132.442 182.766 132.281 182.701 132.105C182.636 131.929 182.608 131.74 182.62 131.552C182.62 130.652 182.62 129.752 182.482 128.74L182.399 113.377C182.399 112.252 182.399 111.126 182.594 110.001C182.715 108.579 183.324 107.245 184.314 106.231C186.868 103.418 189.421 100.828 192.002 98.1555L195.779 94.3025C196.488 93.534 197.349 92.9249 198.306 92.5176C199.142 92.1616 200.036 91.9659 200.941 91.9393H227.648C227.925 91.9115 228.204 91.9114 228.481 91.9393Z" fill="url(#paint0_linear_500_9243)"/>
<path d="M149.451 64.0379C149.631 64.0379 149.811 64.1102 150.134 64.1649V64.1831C149.936 64.9675 149.756 65.7347 149.559 66.4827C148.949 68.9271 148.374 71.3725 147.728 73.7988C146.67 77.793 143.998 79.9262 139.944 79.9265H108.511C107.596 83.4838 106.699 86.9876 105.819 90.4902C104.958 93.9197 104.26 97.4048 103.219 100.761C101.067 107.693 106.232 113.913 112.906 114.114C118.539 114.279 124.173 114.187 129.806 114.205C130.9 114.205 132.014 114.187 133.108 114.241C136.75 114.461 138.849 116.961 138.203 120.628C137.683 123.546 136.84 126.409 136.033 129.273C135.943 129.619 135.152 129.985 134.704 129.985C130.219 130.04 125.716 130.076 121.232 129.985C117.123 129.912 112.942 130.077 108.905 129.42C94.4995 127.012 84.5244 113.494 85.9413 98.6998C86.3718 94.1939 87.3947 89.8877 89.8167 86.0202C92.3641 81.934 95.9527 79.7272 100.76 79.7088C102.967 79.7088 105.157 79.6904 107.363 79.7451C108.206 79.7632 108.565 79.4525 108.744 78.6134C109.372 75.8407 110.071 73.1038 110.771 70.3494C111.722 66.6282 114.54 64.1107 118.253 64.0742C128.659 63.983 139.064 64.0379 149.451 64.0379Z" fill="url(#paint1_linear_500_9243)"/>
<path d="M84.4265 64.0311C84.8212 64.0311 85.2172 64.1034 85.8093 64.1581C85.5581 65.1796 85.3779 66.0742 85.1447 66.968C84.5527 69.303 83.9782 71.6565 83.3144 73.9915C82.2739 77.713 79.4386 79.9015 75.6173 79.9197C65.9476 79.9562 56.2775 79.9197 46.6077 79.9197H46.3392C43.1281 79.9015 42.9308 80.0663 42.1953 83.2398C41.693 85.3559 41.1539 87.4725 40.5619 89.8438H63.7405L60.297 103.782H66.844C67.9025 103.782 68.9628 103.781 70.0034 103.891C74.6853 104.329 77.287 107.303 77.0538 112.119C76.6591 120.036 71.437 128.536 61.6954 129.667C58.4846 130.032 55.2021 129.996 51.9554 130.014C39.9532 130.051 27.9312 130.014 15.929 130.014H14.1367C14.944 126.877 15.7148 123.921 16.4682 120.947C16.9167 119.196 17.4005 117.444 17.7414 115.657C17.9388 114.581 18.424 114.216 19.5001 114.216C29.6723 114.235 39.8454 114.216 50.0356 114.216C51.8294 114.216 53.6052 114.162 55.399 114.162C56.7804 114.162 57.6782 113.487 58.037 112.173C58.7546 109.528 59.4181 106.864 60.1895 103.909L60.1537 103.891H57.8916C52.4022 103.854 46.8949 103.855 41.4055 103.746C39.3423 103.709 37.5486 102.777 36.2748 101.135C32.4715 96.2284 28.6664 91.3407 25.0066 86.3241C23.0333 83.6243 23.3937 80.485 24.2548 77.4568C26.4797 69.4488 33.225 64.1039 41.3876 64.0674C55.7399 63.9944 70.0921 64.0311 84.4265 64.0311Z" fill="url(#paint2_linear_500_9243)"/>
<path d="M185.84 66.1402C188.33 64.5727 191.245 63.8438 194.168 64.0583C195.222 64.0587 195.668 64.5083 195.779 65.605C195.835 66.3912 195.835 67.1819 195.779 67.9681V85.0768C195.752 86.1947 195.524 87.3002 195.106 88.338C194.628 89.5245 193.912 90.5999 193.003 91.4903C189.478 95.2035 185.924 98.8883 182.399 102.573C181.67 103.363 180.781 103.986 179.794 104.399C178.809 104.811 177.746 105.004 176.68 104.966L152.693 104.939C152.251 104.967 151.805 104.967 151.362 104.939C150.086 104.798 149.78 104.15 150.557 103.138C151.334 102.125 152.778 100.577 153.888 99.3394C154.999 98.1015 156.526 96.5251 157.831 94.9216C158.682 93.9449 159.735 93.1692 160.914 92.6492C161.946 92.1944 163.055 91.9442 164.176 91.9121H176.235C177.018 91.9361 177.801 91.7984 178.53 91.5085C179.26 91.2183 179.925 90.7799 180.484 90.2226C181.099 89.6456 181.59 88.9448 181.925 88.1656C182.259 87.3863 182.429 86.5435 182.426 85.6937V71.7668C182.464 70.6092 182.798 69.4808 183.397 68.4942C183.996 67.5078 184.838 66.6967 185.84 66.1402Z" fill="url(#paint3_linear_500_9243)"/>
<defs>
<linearGradient id="paint0_linear_500_9243" x1="16.2154" y1="92.5215" x2="102.622" y2="206.899" gradientUnits="userSpaceOnUse">
<stop stop-color="#6B9AFF"/>
<stop offset="1" stop-color="#22C574"/>
</linearGradient>
<linearGradient id="paint1_linear_500_9243" x1="16.2154" y1="92.5215" x2="102.622" y2="206.899" gradientUnits="userSpaceOnUse">
<stop stop-color="#6B9AFF"/>
<stop offset="1" stop-color="#22C574"/>
</linearGradient>
<linearGradient id="paint2_linear_500_9243" x1="16.2154" y1="92.5215" x2="102.622" y2="206.899" gradientUnits="userSpaceOnUse">
<stop stop-color="#6B9AFF"/>
<stop offset="1" stop-color="#22C574"/>
</linearGradient>
<linearGradient id="paint3_linear_500_9243" x1="16.2154" y1="92.5215" x2="102.622" y2="206.899" gradientUnits="userSpaceOnUse">
<stop stop-color="#6B9AFF"/>
<stop offset="1" stop-color="#22C574"/>
</linearGradient>
</defs>
</svg>
