<svg width="140" height="36" viewBox="0 0 140 36" fill="none" xmlns="http://www.w3.org/2000/svg">
<path d="M133.722 2.61816C134.059 2.61254 137.458 7.04021 138.071 7.59145L133.434 7.59828C132.954 8.42869 131.679 10.1031 131.082 10.9341L126.685 17.0534L113.352 35.5808C108.296 35.6801 102.901 35.5786 97.8153 35.5877L97.6583 35.5804L97.6046 35.5144C97.8621 34.9704 100.133 32.7703 100.683 32.1906L109.767 22.6666L118.599 13.4024C120.333 11.5758 122.362 9.31372 124.169 7.59903C122.802 7.58193 121.411 7.59324 120.041 7.59145C120.443 7.37931 121.338 7.07779 121.783 6.91579L124.874 5.79552C127.672 4.78345 130.917 3.52868 133.722 2.61816Z" fill="#52E263"/>
<path d="M92.8776 8.09772C95.6267 7.96476 99.4732 8.47076 102.153 8.85117L102.162 19.6568C102.162 22.5225 102.203 25.4889 102.146 28.3413C101.717 28.874 100.709 29.8775 100.203 30.4095C98.9927 31.6898 97.7706 32.9597 96.5383 34.2189C96.6044 33.0378 96.5445 31.0641 96.5424 29.8276L96.5479 27.14C89.5468 28.4726 83.7567 27.437 83.3216 19.1472C82.9429 11.9166 85.6087 8.48545 92.8776 8.09772ZM92.5148 23.0096C93.5448 23.0916 95.5641 23.0457 96.5631 22.7924C96.4722 19.6474 96.519 15.8761 96.541 12.7041C95.235 12.5333 94.3227 12.4101 93.0071 12.5088C91.8022 12.6539 90.5802 12.8186 89.7933 13.8637C88.7509 15.2478 88.6573 17.4098 88.8466 19.0568C89.1075 21.3223 90.1657 22.7472 92.5148 23.0096Z" fill="white"/>
<path d="M69.4506 7.97048C72.3092 7.65641 75.7688 8.39317 77.9423 10.3765C81.667 13.7746 81.7758 20.9005 78.4566 24.6037C76.7877 26.4659 74.1247 27.4866 71.6538 27.5983C68.9501 27.8139 65.8431 27.2022 63.6819 25.4586C59.7243 22.2659 59.4799 15.0192 62.5936 11.1837C64.292 9.09159 66.8231 8.21614 69.4506 7.97048ZM70.9281 23.0326C74.6521 22.6826 75.4962 20.2392 75.2931 16.8899C75.1388 14.3493 73.1326 12.216 70.4744 12.5826C69.229 12.6379 68.0884 12.9279 67.2309 13.9116C65.517 15.8777 65.5307 20.1463 67.4812 21.9486C68.4293 22.8247 69.6985 23.0612 70.9281 23.0326Z" fill="white"/>
<path d="M18.9527 2.55898C20.8744 2.57068 22.796 2.57103 24.7176 2.56005L24.7133 7.55172L24.7161 13.7868C24.7166 17.4923 24.9498 21.913 22.1383 24.7591C18.3282 28.6162 9.35635 28.641 5.44827 24.9155C2.89635 22.4828 2.71829 18.7152 2.7122 15.4216C2.70428 11.141 2.7548 6.84306 2.70337 2.56068C4.63626 2.57039 6.56919 2.56901 8.50209 2.55656C8.59676 6.30261 8.44508 10.2126 8.5065 13.9754C8.53397 15.6577 8.40481 17.557 8.62113 19.219C8.71442 19.9357 9.14933 20.887 9.64352 21.3988C10.6826 22.4321 12.1673 22.6249 13.5547 22.6621C19.8693 22.8318 18.9474 17.9832 18.9466 13.4948L18.9527 2.55898Z" fill="white"/>
<path d="M37.0831 7.89241C37.2127 7.884 37.3425 7.87945 37.4724 7.87869C40.2815 7.87524 43.1883 8.35303 45.2529 10.4279C48.0437 13.2325 47.7091 17.3263 47.7088 20.9661L47.705 27.2286L42.1319 27.2321C42.0725 23.7152 42.238 20.0677 42.0468 16.5537C41.9441 14.6659 41.2347 13.3301 39.3483 12.6855C37.3871 12.2617 36.3304 12.5374 34.4152 12.6971C34.5229 17.3765 34.4305 22.5283 34.4182 27.2362C32.6149 27.1815 30.5972 27.2242 28.7848 27.2337C28.6949 21.199 28.7639 14.9 28.7843 8.84883C31.6678 8.51669 34.1308 8.00648 37.0831 7.89241Z" fill="white"/>
<path d="M51.6878 1.0292C53.5064 1.06762 55.4316 1.0363 57.2583 1.03571L57.252 27.2233L51.6863 27.2283C51.5788 23.3663 51.6673 19.075 51.6675 15.1856C51.6677 10.5383 51.5914 5.65959 51.6878 1.0292Z" fill="white"/>
<path d="M124.154 23.6247C124.592 23.7932 130.412 34.2858 131.326 35.5885L127.265 35.582L121.414 35.5776C121.403 35.5667 121.392 35.5556 121.382 35.5444C120.923 35.0484 120.541 34.3591 120.356 33.7088C119.278 29.9221 121.489 26.125 124.154 23.6247Z" fill="#52E263"/>
<path d="M105.885 8.86324C107.02 8.80524 108.464 8.84448 109.618 8.84407C111.572 8.83462 113.526 8.83945 115.481 8.85876C116.167 9.8711 116.916 11.2903 117.554 12.3814C116.498 13.4614 115.45 14.5492 114.41 15.6447C113.491 16.621 112.401 17.7535 111.444 18.6844L107.838 12.4846C107.204 11.396 106.534 10.2845 105.933 9.17434C105.844 9.00952 105.832 9.02821 105.885 8.86324Z" fill="#52E263"/>
</svg>
